<?xml version="1.0" encoding="iso-8859-1"?>
<!-- Generator: Adobe Illustrator 19.0.0, SVG Export Plug-In . SVG Version: 6.00 Build 0)  -->
<svg version="1.1" id="Layer_1" xmlns="http://www.w3.org/2000/svg" xmlns:xlink="http://www.w3.org/1999/xlink" x="0px" y="0px"
	 viewBox="0 0 512.427 512.427" style="enable-background:new 0 0 512.427 512.427;" xml:space="preserve">
<g transform="translate(1 1)">
	<polygon style="fill:#FFE100;" points="169.88,502.893 84.547,451.693 84.547,357.827 169.88,306.627 255.213,357.827 
		255.213,451.693 	"/>
	<g>
		<polygon style="fill:#FDCC00;" points="340.547,502.893 255.213,451.693 255.213,357.827 340.547,306.627 425.88,357.827 
			425.88,451.693 		"/>
		<polygon style="fill:#FDCC00;" points="425.88,357.827 340.547,306.627 340.547,204.227 425.88,153.027 502.68,204.227 
			502.68,306.627 		"/>
	</g>
	<polygon style="fill:#FFE100;" points="255.213,357.827 169.88,306.627 169.88,204.227 255.213,153.027 340.547,204.227 
		340.547,306.627 	"/>
	<polygon style="fill:#FDCC00;" points="84.547,357.827 7.747,306.627 7.747,204.227 84.547,153.027 169.88,204.227 169.88,306.627 
			"/>
	<polygon style="fill:#FFFFFF;" points="33.347,306.627 33.347,204.227 98.2,160.707 84.547,153.027 7.747,204.227 7.747,306.627 
		84.547,357.827 98.2,350.147 	"/>
	<polygon style="fill:#FDCC00;" points="340.547,204.227 255.213,153.027 255.213,59.16 340.547,7.96 425.88,59.16 425.88,153.027 	
		"/>
	<polygon style="fill:#FFE100;" points="169.88,204.227 84.547,153.027 84.547,59.16 169.88,7.96 255.213,59.16 255.213,153.027 	
		"/>
	<g>
		<polygon style="fill:#FFFFFF;" points="110.147,153.027 110.147,59.16 182.68,15.64 169.88,7.96 84.547,59.16 84.547,153.027 
			169.88,204.227 182.68,196.547 		"/>
		<polygon style="fill:#FFFFFF;" points="110.147,451.693 110.147,357.827 182.68,314.307 169.88,306.627 84.547,357.827 
			84.547,451.693 169.88,502.893 182.68,495.213 		"/>
	</g>
	<g>
		<polygon style="fill:#FFA800;" points="477.08,306.627 477.08,204.227 412.227,160.707 425.88,153.027 502.68,204.227 
			502.68,306.627 425.88,357.827 412.227,350.147 		"/>
		<polygon style="fill:#FFA800;" points="400.28,153.027 400.28,59.16 327.747,15.64 340.547,7.96 425.88,59.16 425.88,153.027 
			340.547,204.227 327.747,196.547 		"/>
		<polygon style="fill:#FFA800;" points="400.28,451.693 400.28,357.827 327.747,314.307 340.547,306.627 425.88,357.827 
			425.88,451.693 340.547,502.893 327.747,495.213 		"/>
	</g>
	<path d="M169.88,212.76c-1.707,0-3.413,0-4.267-0.853l-85.333-51.2c-2.56-1.707-4.267-4.267-4.267-7.68V59.16
		c0-3.413,1.707-5.973,4.267-7.68l85.333-51.2c2.56-1.707,5.973-1.707,8.533,0l85.333,51.2c2.56,1.707,4.267,4.267,4.267,7.68
		v93.867c0,3.413-1.707,5.973-4.267,7.68l-85.333,51.2C173.293,212.76,171.587,212.76,169.88,212.76z M93.08,147.907l76.8,46.08
		l76.8-46.08V64.28l-76.8-46.08l-76.8,46.08V147.907z"/>
	<path d="M340.547,212.76c-1.707,0-3.413,0-4.267-0.853l-85.333-51.2c-2.56-1.707-4.267-4.267-4.267-7.68V59.16
		c0-3.413,1.707-5.973,4.267-7.68l85.333-51.2c2.56-1.707,5.973-1.707,8.533,0l85.333,51.2c2.56,1.707,4.267,4.267,4.267,7.68
		v93.867c0,3.413-1.707,5.973-4.267,7.68l-85.333,51.2C343.96,212.76,342.253,212.76,340.547,212.76z M263.747,147.907l76.8,46.08
		l76.8-46.08V64.28l-76.8-46.08l-76.8,46.08V147.907z"/>
	<path d="M169.88,511.427c-1.707,0-3.413,0-4.267-0.853l-85.333-51.2c-2.56-1.707-4.267-4.267-4.267-7.68v-93.867
		c0-3.413,1.707-5.973,4.267-7.68l85.333-51.2c2.56-1.707,5.973-1.707,8.533,0l85.333,51.2c2.56,1.707,4.267,4.267,4.267,7.68
		v93.867c0,3.413-1.707,5.973-4.267,7.68l-85.333,51.2C173.293,511.427,171.587,511.427,169.88,511.427z M93.08,446.573l76.8,46.08
		l76.8-46.08v-84.48l-76.8-46.08l-76.8,46.08V446.573z"/>
	<path d="M340.547,511.427c-1.707,0-3.413,0-4.267-0.853l-85.333-51.2c-2.56-1.707-4.267-4.267-4.267-7.68v-93.867
		c0-3.413,1.707-5.973,4.267-7.68l85.333-51.2c2.56-1.707,5.973-1.707,8.533,0l85.333,51.2c2.56,1.707,4.267,4.267,4.267,7.68
		v93.867c0,3.413-1.707,5.973-4.267,7.68l-85.333,51.2C343.96,511.427,342.253,511.427,340.547,511.427z M263.747,446.573
		l76.8,46.08l76.8-46.08v-84.48l-76.8-46.08l-76.8,46.08V446.573z"/>
	<path d="M84.547,366.36c-1.707,0-3.413-0.853-5.12-1.707l-76.8-51.2c-1.707-1.707-3.413-4.267-3.413-6.827v-102.4
		c0-2.56,1.707-5.12,3.413-6.827l76.8-51.2c2.56-1.707,5.973-1.707,9.387,0l85.333,51.2c2.56,1.707,4.267,4.267,4.267,7.68v102.4
		c0,3.413-1.707,5.973-4.267,7.68l-85.333,51.2C87.96,366.36,86.253,366.36,84.547,366.36z M16.28,302.36l68.267,46.08l76.8-46.08
		v-93.013l-76.8-46.08l-68.267,46.08V302.36z"/>
	<path d="M255.213,366.36c-1.707,0-3.413,0-4.267-0.853l-85.333-51.2c-2.56-1.707-4.267-4.267-4.267-7.68v-102.4
		c0-3.413,1.707-5.973,4.267-7.68l85.333-51.2c2.56-1.707,5.973-1.707,8.533,0l85.333,51.2c2.56,1.707,4.267,4.267,4.267,7.68v102.4
		c0,3.413-1.707,5.973-4.267,7.68l-85.333,51.2C258.627,366.36,256.92,366.36,255.213,366.36z M178.413,301.507l76.8,46.08
		l76.8-46.08v-92.16l-76.8-46.08l-76.8,46.08V301.507z"/>
	<path d="M425.88,366.36c-1.707,0-3.413,0-4.267-0.853l-85.333-51.2c-2.56-1.707-4.267-4.267-4.267-7.68v-102.4
		c0-3.413,1.707-5.973,4.267-7.68l85.333-51.2c2.56-1.707,5.973-1.707,9.387,0l76.8,51.2c2.56,1.707,3.413,4.267,3.413,6.827v102.4
		c0,2.56-1.707,5.12-3.413,6.827L431,363.8C429.293,365.507,427.587,366.36,425.88,366.36z M349.08,301.507l76.8,46.08l68.267-46.08
		v-93.013l-68.267-46.08l-76.8,46.08V301.507z"/>
</g>
<g>
</g>
<g>
</g>
<g>
</g>
<g>
</g>
<g>
</g>
<g>
</g>
<g>
</g>
<g>
</g>
<g>
</g>
<g>
</g>
<g>
</g>
<g>
</g>
<g>
</g>
<g>
</g>
<g>
</g>
</svg>
